<?xml version="1.0" encoding="UTF-8"?>
<!DOCTYPE svg PUBLIC "-//W3C//DTD SVG 1.1//EN" "http://www.w3.org/Graphics/SVG/1.1/DTD/svg11.dtd">
<svg version="1.1" xmlns="http://www.w3.org/2000/svg" xmlns:xlink="http://www.w3.org/1999/xlink" x="0" y="0" width="665" height="360" viewBox="0, 0, 665, 360">
  <g id="Ebene_1">
    <path d="M47.18,342.761 L12,342.761 L12,13 L47.18,13 z" fill="#333333"/>
    <path d="M496.774,279.394 Q496.774,311.819 472.614,329.409 Q448.454,346.999 404.797,346.999 Q358.596,346.999 332.741,332.376 L332.741,299.739 Q349.484,308.216 368.663,313.091 Q387.843,317.965 405.645,317.965 Q433.195,317.965 448.03,309.17 Q462.865,300.375 462.865,282.361 Q462.865,268.798 451.103,259.155 Q439.341,249.512 405.221,236.373 Q372.796,224.293 359.126,215.286 Q345.457,206.279 338.781,194.835 Q332.105,183.391 332.105,167.496 Q332.105,139.098 355.206,122.673 Q378.306,106.249 418.572,106.249 Q456.084,106.249 491.9,121.507 L479.396,150.118 Q444.428,135.707 416.029,135.707 Q391.022,135.707 378.306,143.548 Q365.59,151.389 365.59,165.165 Q365.59,174.49 370.358,181.059 Q375.127,187.629 385.723,193.563 Q396.32,199.497 426.414,210.729 Q467.74,225.776 482.257,241.035 Q496.774,256.294 496.774,279.394 z" fill="#333333"/>
    <path d="M625.237,106.249 Q640.708,106.249 653,108.792 L648.126,141.429 Q633.714,138.25 622.694,138.25 Q594.508,138.25 574.48,161.138 Q554.453,184.026 554.453,218.147 L554.453,342.761 L519.273,342.761 L519.273,110.487 L548.307,110.487 L552.334,153.509 L554.029,153.509 Q566.957,130.832 585.183,118.54 Q603.409,106.249 625.237,106.249 z" fill="#333333"/>
    <path d="M305.806,178.905 C305.806,174.371 303.416,170.207 299.503,167.952 L195.129,107.9 C193.367,106.865 191.394,106.323 189.393,106.249 L188.313,106.249 C186.312,106.323 184.339,106.865 182.547,107.9 L78.179,167.952 C74.29,170.219 71.866,174.383 71.866,178.917 L72.095,340.667 C72.095,342.909 73.253,345.004 75.224,346.112 C77.146,347.295 79.561,347.295 81.483,346.112 L143.532,310.579 C147.45,308.248 149.84,304.128 149.84,299.638 L149.84,224.074 C149.84,219.564 152.23,215.4 156.136,213.157 L182.552,197.943 C184.514,196.81 186.667,196.248 188.86,196.248 C191.019,196.248 193.222,196.805 195.129,197.941 L221.533,213.15 C225.441,215.392 227.841,219.557 227.841,224.066 L227.841,299.626 C227.841,304.11 230.264,308.25 234.162,310.567 L296.171,346.075 C298.118,347.234 300.54,347.234 302.479,346.075 C304.392,344.967 305.604,342.872 305.604,340.63 z" fill="#679F63"/>
    <path d="" fill="#333333"/>
    <path d="M187.425,211.315 C188.293,210.802 189.381,210.802 190.261,211.315 L213.785,224.885 C214.665,225.394 215.203,226.332 215.203,227.345 L215.203,254.515 C215.203,255.528 214.665,256.465 213.785,256.974 L190.261,270.545 C189.381,271.057 188.293,271.057 187.425,270.545 L163.915,256.974 C163.018,256.465 162.468,255.528 162.468,254.515 L162.468,227.345 C162.468,226.332 162.989,225.394 163.886,224.885 z M187.425,211.315" fill="#333333"/>
  </g>
</svg>
